<svg width="29" height="24" viewBox="0 0 29 24" fill="none" xmlns="http://www.w3.org/2000/svg">
<path d="M10.8029 20.9502C10.3832 20.4341 9.97153 19.4537 9.80526 18.6224C11.9668 18.6224 14.2386 18.6972 15.9573 19.1212C16.8176 19.3334 17.2174 20.3664 17.9526 21.1841C17.042 21.6325 12.5448 22.0968 10.8029 20.9502Z" fill="#727272"/>
<path d="M15.2355 12.0418C13.6002 12.3807 11.9514 12.6261 10.2958 12.8105C8.42476 13.0189 6.54759 13.1726 4.59301 13.2488C2.86314 5.92921 9.65772 -0.496858 15.0463 0.0303151C13.1467 4.03749 12.7883 8.02214 15.2355 12.0418Z" fill="#737273"/>
<path d="M23.0346 16.9611C22.2846 16.423 21.6377 15.8312 20.9843 15.124C21.8832 15.1441 22.7889 15.2797 23.9564 15.4544C23.6378 16.0198 23.3878 16.4637 23.0346 16.9611Z" fill="#6F6E6F"/>
<path d="M12.9886 20.9086C12.8942 21.6944 12.8715 22.4993 12.6699 23.2566C12.5895 23.5586 12.1137 23.7553 11.8179 24C11.7333 23.6696 11.6238 23.3433 11.5697 23.008C11.4839 22.4762 11.5093 21.9164 11.3583 21.4068C10.5576 18.7045 8.65091 18.4035 6.16377 20.1454C4.46847 21.3328 2.78107 22.5326 1.05443 23.6728C0.805803 23.837 0.356457 23.6972 0 23.6981C0.190841 23.3719 0.326413 22.992 0.582358 22.7292C1.54566 21.7404 2.71044 20.9028 3.48532 19.7896C4.12089 18.8766 4.3101 17.6529 4.79293 16.2982C3.65926 16.2446 2.96075 16.2168 2.26289 16.1775C0.996321 16.1062 0.339162 15.5788 0.97658 14.2661C1.34608 13.5052 1.61576 13.0631 1.89687 12.5815C1.93975 12.5081 1.65036 12.1011 1.69416 12.0246C1.92575 12.0445 2.64523 12.1736 2.85806 12.1909C3.97755 12.2816 4.7141 12.5657 5.85095 12.6897C7.90724 12.5591 10.1743 12.0746 12.0453 11.8662C13.7009 11.6817 15.3497 11.4363 17.0015 11.2179C18.0733 11.2769 19.2574 11.6534 20.1913 11.3229C21.7203 10.7818 23.1572 9.88176 24.4986 8.94143C25.5485 8.20535 25.7887 7.08116 25.3893 5.75708C24.7141 3.51888 25.7677 2.11269 27.375 2.3548C27.1483 4.14643 26.9758 5.9151 26.6738 7.66135C26.5763 8.22512 26.21 8.78754 25.8404 9.24951C25.1223 10.147 24.2025 10.902 23.5959 11.8612C23.3281 12.2847 23.5502 13.0781 23.6816 13.6744C23.7823 14.1312 24.0898 14.5424 24.3289 15.2163C24.9994 16.0505 25.6462 16.6423 26.2931 17.2341C27.0786 18.8347 27.9095 20.4158 28.6123 22.0519C28.7572 22.3892 28.424 22.9317 28.1273 23.4122C26.9457 20.9949 25.6031 19.0451 22.5549 19.5279C22.6713 22.5123 20.3204 24.6979 18.0863 23.7844C18.7693 23.0651 19.4494 22.3489 20.0547 21.4474C19.2428 20.5726 18.603 19.4872 17.7482 19.2774C16.0403 18.858 14.1434 18.9568 11.9715 18.7887C12.3791 19.7185 12.7194 20.2945 12.9886 20.9086Z" fill="#FEFEFE"/>
</svg>
